<mxfile host="app.diagrams.net" agent="Mozilla/5.0 (Windows NT 10.0; Win64; x64; rv:138.0) Gecko/20100101 Firefox/138.0" version="27.0.5">
  <diagram id="R2lEEEUBdFMjLlhIrx00" name="Page-1">
    <mxGraphModel dx="4685" dy="2940" grid="1" gridSize="10" guides="1" tooltips="1" connect="1" arrows="1" fold="1" page="1" pageScale="1" pageWidth="850" pageHeight="1100" math="0" shadow="0" extFonts="Permanent Marker^https://fonts.googleapis.com/css?family=Permanent+Marker">
      <root>
        <mxCell id="0" />
        <mxCell id="1" parent="0" />
        <mxCell id="C-vyLk0tnHw3VtMMgP7b-12" value="" style="edgeStyle=entityRelationEdgeStyle;endArrow=ERzeroToMany;startArrow=ERone;endFill=1;startFill=0;labelBackgroundColor=none;fontColor=default;" parent="1" target="C-vyLk0tnHw3VtMMgP7b-17" edge="1">
          <mxGeometry width="100" height="100" relative="1" as="geometry">
            <mxPoint x="700" y="165" as="sourcePoint" />
            <mxPoint x="460" y="205" as="targetPoint" />
          </mxGeometry>
        </mxCell>
        <mxCell id="Y19wQWIksPXoUxGlIQRN-101" style="edgeStyle=orthogonalEdgeStyle;rounded=0;orthogonalLoop=1;jettySize=auto;html=1;exitX=0.5;exitY=1;exitDx=0;exitDy=0;entryX=0.5;entryY=0;entryDx=0;entryDy=0;" edge="1" parent="1" source="Y19wQWIksPXoUxGlIQRN-10" target="Y19wQWIksPXoUxGlIQRN-97">
          <mxGeometry relative="1" as="geometry" />
        </mxCell>
        <mxCell id="Y19wQWIksPXoUxGlIQRN-10" value="DISCIPLINA" style="html=1;overflow=block;blockSpacing=1;whiteSpace=wrap;fontSize=16.7;fontStyle=1;spacing=9;strokeOpacity=100;rounded=1;absoluteArcSize=1;arcSize=9;strokeWidth=NaN;lucidId=G15fPgt_3bsX;labelBackgroundColor=none;" vertex="1" parent="1">
          <mxGeometry x="-50" y="-101" width="120" height="56" as="geometry" />
        </mxCell>
        <mxCell id="Y19wQWIksPXoUxGlIQRN-11" value="ID_Disciplina" style="html=1;overflow=block;blockSpacing=1;whiteSpace=wrap;ellipse;fontSize=16.7;fontStyle=5;spacing=3.8;strokeOpacity=100;rounded=1;absoluteArcSize=1;arcSize=9;strokeWidth=NaN;lucidId=r35fnJfatce~;labelBackgroundColor=none;" vertex="1" parent="1">
          <mxGeometry x="-320" y="-281" width="135" height="60" as="geometry" />
        </mxCell>
        <mxCell id="Y19wQWIksPXoUxGlIQRN-12" value="SALA" style="html=1;overflow=block;blockSpacing=1;whiteSpace=wrap;fontSize=16.7;fontStyle=1;spacing=9;strokeOpacity=100;rounded=1;absoluteArcSize=1;arcSize=9;strokeWidth=NaN;lucidId=f-5flPXtcrAJ;labelBackgroundColor=none;" vertex="1" parent="1">
          <mxGeometry x="-20" y="1110" width="120" height="56" as="geometry" />
        </mxCell>
        <mxCell id="Y19wQWIksPXoUxGlIQRN-13" value="" style="html=1;jettySize=18;whiteSpace=wrap;fontSize=13;strokeWidth=1.5;rounded=1;arcSize=12;edgeStyle=orthogonalEdgeStyle;startArrow=none;endArrow=block;endFill=1;exitX=0.5;exitY=-0.014;exitPerimeter=0;entryX=0.5;entryY=1.013;entryPerimeter=0;lucidId=l.5fnVeJF74H;labelBackgroundColor=none;fontColor=default;" edge="1" parent="1" source="Y19wQWIksPXoUxGlIQRN-12" target="Y19wQWIksPXoUxGlIQRN-14">
          <mxGeometry width="100" height="100" relative="1" as="geometry">
            <Array as="points" />
          </mxGeometry>
        </mxCell>
        <mxCell id="Y19wQWIksPXoUxGlIQRN-14" value="ID_Sala" style="html=1;overflow=block;blockSpacing=1;whiteSpace=wrap;ellipse;fontSize=16.7;fontStyle=5;spacing=3.8;strokeOpacity=100;rounded=1;absoluteArcSize=1;arcSize=9;strokeWidth=NaN;lucidId=n.5fCpDBYmZc;labelBackgroundColor=none;" vertex="1" parent="1">
          <mxGeometry x="-260" y="930" width="120" height="60" as="geometry" />
        </mxCell>
        <mxCell id="Y19wQWIksPXoUxGlIQRN-15" value="TP_Tipo" style="html=1;overflow=block;blockSpacing=1;whiteSpace=wrap;ellipse;fontSize=16.7;spacing=3.8;strokeOpacity=100;rounded=1;absoluteArcSize=1;arcSize=9;strokeWidth=NaN;lucidId=db6f_Iska4-0;labelBackgroundColor=none;" vertex="1" parent="1">
          <mxGeometry x="-125" y="930" width="120" height="60" as="geometry" />
        </mxCell>
        <mxCell id="Y19wQWIksPXoUxGlIQRN-16" value="" style="html=1;jettySize=18;whiteSpace=wrap;fontSize=13;strokeWidth=1.5;rounded=1;arcSize=12;edgeStyle=orthogonalEdgeStyle;startArrow=none;endArrow=block;endFill=1;exitX=0.5;exitY=0;exitPerimeter=0;entryX=0.5;entryY=1;entryPerimeter=0;lucidId=wb6fEzqREAwt;labelBackgroundColor=none;fontColor=default;" edge="1" parent="1" source="Y19wQWIksPXoUxGlIQRN-12" target="Y19wQWIksPXoUxGlIQRN-15">
          <mxGeometry width="100" height="100" relative="1" as="geometry">
            <Array as="points" />
          </mxGeometry>
        </mxCell>
        <mxCell id="Y19wQWIksPXoUxGlIQRN-17" value="NU_Capacidade" style="html=1;overflow=block;blockSpacing=1;whiteSpace=wrap;ellipse;fontSize=16.7;spacing=3.8;strokeOpacity=100;rounded=1;absoluteArcSize=1;arcSize=9;strokeWidth=NaN;lucidId=_b6fiLza6qaf;labelBackgroundColor=none;" vertex="1" parent="1">
          <mxGeometry x="10" y="930" width="150" height="60" as="geometry" />
        </mxCell>
        <mxCell id="Y19wQWIksPXoUxGlIQRN-18" value="" style="html=1;jettySize=18;whiteSpace=wrap;fontSize=13;strokeWidth=1.5;rounded=1;arcSize=12;edgeStyle=orthogonalEdgeStyle;startArrow=none;endArrow=block;endFill=1;exitX=0.5;exitY=0;exitPerimeter=0;entryX=0.5;entryY=1;entryPerimeter=0;lucidId=ec6fZ.DXmD2O;labelBackgroundColor=none;fontColor=default;" edge="1" parent="1" source="Y19wQWIksPXoUxGlIQRN-12" target="Y19wQWIksPXoUxGlIQRN-17">
          <mxGeometry width="100" height="100" relative="1" as="geometry">
            <Array as="points" />
          </mxGeometry>
        </mxCell>
        <mxCell id="Y19wQWIksPXoUxGlIQRN-19" value="NM_Nome" style="html=1;overflow=block;blockSpacing=1;whiteSpace=wrap;ellipse;fontSize=16.7;spacing=3.8;strokeOpacity=100;rounded=1;absoluteArcSize=1;arcSize=9;strokeWidth=NaN;lucidId=Pc6fHeIhC-_U;labelBackgroundColor=none;" vertex="1" parent="1">
          <mxGeometry x="-170" y="-281" width="135" height="60" as="geometry" />
        </mxCell>
        <mxCell id="Y19wQWIksPXoUxGlIQRN-20" value="" style="html=1;jettySize=18;whiteSpace=wrap;fontSize=13;strokeWidth=1.5;rounded=1;arcSize=12;edgeStyle=orthogonalEdgeStyle;startArrow=none;endArrow=block;endFill=1;exitX=0.5;exitY=0;exitPerimeter=0;entryX=0.5;entryY=1;entryPerimeter=0;lucidId=9c6fgiMmkkS1;labelBackgroundColor=none;fontColor=default;" edge="1" parent="1" source="Y19wQWIksPXoUxGlIQRN-10" target="Y19wQWIksPXoUxGlIQRN-11">
          <mxGeometry width="100" height="100" relative="1" as="geometry">
            <Array as="points" />
          </mxGeometry>
        </mxCell>
        <mxCell id="Y19wQWIksPXoUxGlIQRN-21" value="" style="html=1;jettySize=18;whiteSpace=wrap;fontSize=13;strokeWidth=1.5;rounded=1;arcSize=12;edgeStyle=orthogonalEdgeStyle;startArrow=none;endArrow=block;endFill=1;exitX=0.5;exitY=0;exitPerimeter=0;entryX=0.5;entryY=1;entryPerimeter=0;lucidId=fd6fWQZdlLP0;labelBackgroundColor=none;fontColor=default;" edge="1" parent="1" source="Y19wQWIksPXoUxGlIQRN-10" target="Y19wQWIksPXoUxGlIQRN-19">
          <mxGeometry width="100" height="100" relative="1" as="geometry">
            <Array as="points" />
          </mxGeometry>
        </mxCell>
        <mxCell id="Y19wQWIksPXoUxGlIQRN-22" value="NM_Nome" style="html=1;overflow=block;blockSpacing=1;whiteSpace=wrap;ellipse;fontSize=16.7;spacing=3.8;strokeOpacity=100;rounded=1;absoluteArcSize=1;arcSize=9;strokeWidth=NaN;lucidId=Id6f2OHknpW-;labelBackgroundColor=none;" vertex="1" parent="1">
          <mxGeometry x="190" y="930" width="135" height="60" as="geometry" />
        </mxCell>
        <mxCell id="Y19wQWIksPXoUxGlIQRN-23" value="" style="html=1;jettySize=18;whiteSpace=wrap;fontSize=13;strokeWidth=1.5;rounded=1;arcSize=12;edgeStyle=orthogonalEdgeStyle;startArrow=none;endArrow=block;endFill=1;exitX=0.5;exitY=0;exitPerimeter=0;entryX=0.5;entryY=1;entryPerimeter=0;lucidId=Od6fX6udn92e;labelBackgroundColor=none;fontColor=default;" edge="1" parent="1" source="Y19wQWIksPXoUxGlIQRN-12" target="Y19wQWIksPXoUxGlIQRN-22">
          <mxGeometry width="100" height="100" relative="1" as="geometry">
            <Array as="points" />
          </mxGeometry>
        </mxCell>
        <mxCell id="Y19wQWIksPXoUxGlIQRN-24" value="PROFESSOR" style="html=1;overflow=block;blockSpacing=1;whiteSpace=wrap;fontSize=16.7;fontStyle=1;spacing=9;strokeOpacity=100;rounded=1;absoluteArcSize=1;arcSize=9;strokeWidth=NaN;lucidId=ae6fUF9AULxB;labelBackgroundColor=none;" vertex="1" parent="1">
          <mxGeometry x="-770" y="-101" width="120" height="56" as="geometry" />
        </mxCell>
        <mxCell id="Y19wQWIksPXoUxGlIQRN-25" value="" style="html=1;jettySize=18;whiteSpace=wrap;fontSize=13;strokeWidth=1.5;rounded=1;arcSize=12;edgeStyle=orthogonalEdgeStyle;startArrow=none;endArrow=block;endFill=1;exitX=0.5;exitY=-0.014;exitPerimeter=0;entryX=0.5;entryY=1.013;entryPerimeter=0;lucidId=ae6f1gedmV-D;labelBackgroundColor=none;fontColor=default;" edge="1" parent="1" source="Y19wQWIksPXoUxGlIQRN-24" target="Y19wQWIksPXoUxGlIQRN-26">
          <mxGeometry width="100" height="100" relative="1" as="geometry">
            <Array as="points" />
          </mxGeometry>
        </mxCell>
        <mxCell id="Y19wQWIksPXoUxGlIQRN-26" value="ID_Professor" style="html=1;overflow=block;blockSpacing=1;whiteSpace=wrap;ellipse;fontSize=16.7;fontStyle=5;spacing=3.8;strokeOpacity=100;rounded=1;absoluteArcSize=1;arcSize=9;strokeWidth=NaN;lucidId=ae6fgK1PmJRZ;labelBackgroundColor=none;" vertex="1" parent="1">
          <mxGeometry x="-1010" y="-281" width="120" height="60" as="geometry" />
        </mxCell>
        <mxCell id="Y19wQWIksPXoUxGlIQRN-27" value="TP_Tipo" style="html=1;overflow=block;blockSpacing=1;whiteSpace=wrap;ellipse;fontSize=16.7;spacing=3.8;strokeOpacity=100;rounded=1;absoluteArcSize=1;arcSize=9;strokeWidth=NaN;lucidId=ae6f2gvM5-Yw;labelBackgroundColor=none;" vertex="1" parent="1">
          <mxGeometry x="-875" y="-281" width="120" height="60" as="geometry" />
        </mxCell>
        <mxCell id="Y19wQWIksPXoUxGlIQRN-28" value="" style="html=1;jettySize=18;whiteSpace=wrap;fontSize=13;strokeWidth=1.5;rounded=1;arcSize=12;edgeStyle=orthogonalEdgeStyle;startArrow=none;endArrow=block;endFill=1;exitX=0.5;exitY=0;exitPerimeter=0;entryX=0.5;entryY=1;entryPerimeter=0;lucidId=ae6ffpph3scF;labelBackgroundColor=none;fontColor=default;" edge="1" parent="1" source="Y19wQWIksPXoUxGlIQRN-24" target="Y19wQWIksPXoUxGlIQRN-27">
          <mxGeometry width="100" height="100" relative="1" as="geometry">
            <Array as="points" />
          </mxGeometry>
        </mxCell>
        <mxCell id="Y19wQWIksPXoUxGlIQRN-29" value="ST_Disponibilidade" style="html=1;overflow=block;blockSpacing=1;whiteSpace=wrap;ellipse;fontSize=16.7;spacing=3.8;strokeOpacity=100;rounded=1;absoluteArcSize=1;arcSize=9;strokeWidth=NaN;lucidId=ae6fedMLyvdE;labelBackgroundColor=none;" vertex="1" parent="1">
          <mxGeometry x="-740" y="-281" width="165" height="60" as="geometry" />
        </mxCell>
        <mxCell id="Y19wQWIksPXoUxGlIQRN-30" value="" style="html=1;jettySize=18;whiteSpace=wrap;fontSize=13;strokeWidth=1.5;rounded=1;arcSize=12;edgeStyle=orthogonalEdgeStyle;startArrow=none;endArrow=block;endFill=1;exitX=0.5;exitY=0;exitPerimeter=0;entryX=0.5;entryY=1;entryPerimeter=0;lucidId=ae6fzTGtWHYr;labelBackgroundColor=none;fontColor=default;" edge="1" parent="1" source="Y19wQWIksPXoUxGlIQRN-24" target="Y19wQWIksPXoUxGlIQRN-29">
          <mxGeometry width="100" height="100" relative="1" as="geometry">
            <Array as="points" />
          </mxGeometry>
        </mxCell>
        <mxCell id="Y19wQWIksPXoUxGlIQRN-31" value="NM_Nome" style="html=1;overflow=block;blockSpacing=1;whiteSpace=wrap;ellipse;fontSize=16.7;spacing=3.8;strokeOpacity=100;rounded=1;absoluteArcSize=1;arcSize=9;strokeWidth=NaN;lucidId=ae6fN-3-NMFZ;labelBackgroundColor=none;" vertex="1" parent="1">
          <mxGeometry x="-560" y="-281" width="135" height="60" as="geometry" />
        </mxCell>
        <mxCell id="Y19wQWIksPXoUxGlIQRN-32" value="" style="html=1;jettySize=18;whiteSpace=wrap;fontSize=13;strokeWidth=1.5;rounded=1;arcSize=12;edgeStyle=orthogonalEdgeStyle;startArrow=none;endArrow=block;endFill=1;exitX=0.5;exitY=0;exitPerimeter=0;entryX=0.5;entryY=1;entryPerimeter=0;lucidId=ae6fDU~baldn;labelBackgroundColor=none;fontColor=default;" edge="1" parent="1" source="Y19wQWIksPXoUxGlIQRN-24" target="Y19wQWIksPXoUxGlIQRN-31">
          <mxGeometry width="100" height="100" relative="1" as="geometry">
            <Array as="points" />
          </mxGeometry>
        </mxCell>
        <mxCell id="Y19wQWIksPXoUxGlIQRN-33" value="EQUIPAMENTO" style="html=1;overflow=block;blockSpacing=1;whiteSpace=wrap;fontSize=16.7;fontStyle=1;spacing=9;strokeOpacity=100;rounded=1;absoluteArcSize=1;arcSize=9;strokeWidth=NaN;lucidId=ly6fkA5fnTM3;labelBackgroundColor=none;" vertex="1" parent="1">
          <mxGeometry x="760" y="1110" width="135" height="56" as="geometry" />
        </mxCell>
        <mxCell id="Y19wQWIksPXoUxGlIQRN-34" value="ID_Equipamento" style="html=1;overflow=block;blockSpacing=1;whiteSpace=wrap;ellipse;fontSize=16.7;fontStyle=5;spacing=3.8;strokeOpacity=100;rounded=1;absoluteArcSize=1;arcSize=9;strokeWidth=NaN;lucidId=ly6flIOGe62c;labelBackgroundColor=none;" vertex="1" parent="1">
          <mxGeometry x="490" y="930" width="150" height="60" as="geometry" />
        </mxCell>
        <mxCell id="Y19wQWIksPXoUxGlIQRN-35" value="TP_Tipo" style="html=1;overflow=block;blockSpacing=1;whiteSpace=wrap;ellipse;fontSize=16.7;spacing=3.8;strokeOpacity=100;rounded=1;absoluteArcSize=1;arcSize=9;strokeWidth=NaN;lucidId=ly6fFEXKtT0r;labelBackgroundColor=none;" vertex="1" parent="1">
          <mxGeometry x="655" y="930" width="135" height="60" as="geometry" />
        </mxCell>
        <mxCell id="Y19wQWIksPXoUxGlIQRN-36" value="" style="html=1;jettySize=18;whiteSpace=wrap;fontSize=13;strokeWidth=1.5;rounded=1;arcSize=12;edgeStyle=orthogonalEdgeStyle;startArrow=none;endArrow=block;endFill=1;exitX=0.5;exitY=0;exitPerimeter=0;entryX=0.5;entryY=1;entryPerimeter=0;lucidId=ly6fE08NCX~Z;labelBackgroundColor=none;fontColor=default;" edge="1" parent="1" source="Y19wQWIksPXoUxGlIQRN-33" target="Y19wQWIksPXoUxGlIQRN-34">
          <mxGeometry width="100" height="100" relative="1" as="geometry">
            <Array as="points" />
          </mxGeometry>
        </mxCell>
        <mxCell id="Y19wQWIksPXoUxGlIQRN-37" value="" style="html=1;jettySize=18;whiteSpace=wrap;fontSize=13;strokeWidth=1.5;rounded=1;arcSize=12;edgeStyle=orthogonalEdgeStyle;startArrow=none;endArrow=block;endFill=1;exitX=0.5;exitY=0;exitPerimeter=0;entryX=0.5;entryY=1;entryPerimeter=0;lucidId=ly6fo3CYjyu_;labelBackgroundColor=none;fontColor=default;" edge="1" parent="1" source="Y19wQWIksPXoUxGlIQRN-33" target="Y19wQWIksPXoUxGlIQRN-35">
          <mxGeometry width="100" height="100" relative="1" as="geometry">
            <Array as="points" />
          </mxGeometry>
        </mxCell>
        <mxCell id="Y19wQWIksPXoUxGlIQRN-38" value="TURMA" style="html=1;overflow=block;blockSpacing=1;whiteSpace=wrap;fontSize=16.7;fontStyle=1;spacing=9;strokeOpacity=100;rounded=1;absoluteArcSize=1;arcSize=9;strokeWidth=NaN;lucidId=Gz6fHb41qWWC;labelBackgroundColor=none;" vertex="1" parent="1">
          <mxGeometry x="-217.5" y="362" width="135" height="56" as="geometry" />
        </mxCell>
        <mxCell id="Y19wQWIksPXoUxGlIQRN-39" value="ID_Turma" style="html=1;overflow=block;blockSpacing=1;whiteSpace=wrap;ellipse;fontSize=16.7;fontStyle=5;spacing=3.8;strokeOpacity=100;rounded=1;absoluteArcSize=1;arcSize=9;strokeWidth=NaN;lucidId=Gz6fg9Iudxbc;labelBackgroundColor=none;" vertex="1" parent="1">
          <mxGeometry x="-487.5" y="182" width="150" height="60" as="geometry" />
        </mxCell>
        <mxCell id="Y19wQWIksPXoUxGlIQRN-40" value="" style="html=1;jettySize=18;whiteSpace=wrap;fontSize=13;strokeWidth=1.5;rounded=1;arcSize=12;edgeStyle=orthogonalEdgeStyle;startArrow=none;endArrow=block;endFill=1;exitX=0.5;exitY=0;exitPerimeter=0;entryX=0.5;entryY=1;entryPerimeter=0;lucidId=Gz6fzZNjKGnE;labelBackgroundColor=none;fontColor=default;" edge="1" parent="1" source="Y19wQWIksPXoUxGlIQRN-38" target="Y19wQWIksPXoUxGlIQRN-39">
          <mxGeometry width="100" height="100" relative="1" as="geometry">
            <Array as="points" />
          </mxGeometry>
        </mxCell>
        <mxCell id="Y19wQWIksPXoUxGlIQRN-41" value="FK_Disciplina" style="html=1;overflow=block;blockSpacing=1;whiteSpace=wrap;ellipse;fontSize=16.7;spacing=3.8;strokeOpacity=100;rounded=1;absoluteArcSize=1;arcSize=9;strokeWidth=NaN;lucidId=uD6fO5CY.-qX;labelBackgroundColor=none;" vertex="1" parent="1">
          <mxGeometry x="-322.5" y="181" width="135" height="60" as="geometry" />
        </mxCell>
        <mxCell id="Y19wQWIksPXoUxGlIQRN-42" value="" style="html=1;jettySize=18;whiteSpace=wrap;fontSize=13;strokeWidth=1.5;rounded=1;arcSize=12;edgeStyle=orthogonalEdgeStyle;startArrow=none;endArrow=block;endFill=1;exitX=0.5;exitY=0;exitPerimeter=0;entryX=0.5;entryY=1;entryPerimeter=0;lucidId=ND6f~f7A.z3M;labelBackgroundColor=none;fontColor=default;" edge="1" parent="1" source="Y19wQWIksPXoUxGlIQRN-38" target="Y19wQWIksPXoUxGlIQRN-41">
          <mxGeometry width="100" height="100" relative="1" as="geometry">
            <Array as="points" />
          </mxGeometry>
        </mxCell>
        <mxCell id="Y19wQWIksPXoUxGlIQRN-43" value="FK_Professor" style="html=1;overflow=block;blockSpacing=1;whiteSpace=wrap;ellipse;fontSize=16.7;spacing=3.8;strokeOpacity=100;rounded=1;absoluteArcSize=1;arcSize=9;strokeWidth=NaN;lucidId=FE6f62Zp4HdE;labelBackgroundColor=none;" vertex="1" parent="1">
          <mxGeometry x="-172.5" y="182" width="135" height="60" as="geometry" />
        </mxCell>
        <mxCell id="Y19wQWIksPXoUxGlIQRN-44" value="" style="html=1;jettySize=18;whiteSpace=wrap;fontSize=13;strokeWidth=1.5;rounded=1;arcSize=12;edgeStyle=orthogonalEdgeStyle;startArrow=none;endArrow=block;endFill=1;exitX=0.5;exitY=0;exitPerimeter=0;entryX=0.5;entryY=1;entryPerimeter=0;lucidId=UE6f~IkM~NAu;labelBackgroundColor=none;fontColor=default;" edge="1" parent="1" source="Y19wQWIksPXoUxGlIQRN-38" target="Y19wQWIksPXoUxGlIQRN-43">
          <mxGeometry width="100" height="100" relative="1" as="geometry">
            <Array as="points" />
          </mxGeometry>
        </mxCell>
        <mxCell id="Y19wQWIksPXoUxGlIQRN-45" value="HORARIO" style="html=1;overflow=block;blockSpacing=1;whiteSpace=wrap;fontSize=16.7;fontStyle=1;spacing=9;strokeOpacity=100;rounded=1;absoluteArcSize=1;arcSize=9;strokeWidth=NaN;lucidId=WQ6fI_Xy43c9;labelBackgroundColor=none;" vertex="1" parent="1">
          <mxGeometry x="-980" y="1110" width="120" height="56" as="geometry" />
        </mxCell>
        <mxCell id="Y19wQWIksPXoUxGlIQRN-46" value="" style="html=1;jettySize=18;whiteSpace=wrap;fontSize=13;strokeWidth=1.5;rounded=1;arcSize=12;edgeStyle=orthogonalEdgeStyle;startArrow=none;endArrow=block;endFill=1;exitX=0.5;exitY=-0.014;exitPerimeter=0;entryX=0.5;entryY=1.013;entryPerimeter=0;lucidId=WQ6fuU-aL5SK;labelBackgroundColor=none;fontColor=default;" edge="1" parent="1" source="Y19wQWIksPXoUxGlIQRN-45" target="Y19wQWIksPXoUxGlIQRN-47">
          <mxGeometry width="100" height="100" relative="1" as="geometry">
            <Array as="points" />
          </mxGeometry>
        </mxCell>
        <mxCell id="Y19wQWIksPXoUxGlIQRN-47" value="ID_Horario" style="html=1;overflow=block;blockSpacing=1;whiteSpace=wrap;ellipse;fontSize=16.7;fontStyle=5;spacing=3.8;strokeOpacity=100;rounded=1;absoluteArcSize=1;arcSize=9;strokeWidth=NaN;lucidId=WQ6f-cWeAVWq;labelBackgroundColor=none;" vertex="1" parent="1">
          <mxGeometry x="-1220" y="930" width="120" height="60" as="geometry" />
        </mxCell>
        <mxCell id="Y19wQWIksPXoUxGlIQRN-48" value="TP_DiaSemana" style="html=1;overflow=block;blockSpacing=1;whiteSpace=wrap;ellipse;fontSize=16.7;spacing=3.8;strokeOpacity=100;rounded=1;absoluteArcSize=1;arcSize=9;strokeWidth=NaN;lucidId=WQ6fr980sNWZ;labelBackgroundColor=none;" vertex="1" parent="1">
          <mxGeometry x="-1085" y="930" width="120" height="60" as="geometry" />
        </mxCell>
        <mxCell id="Y19wQWIksPXoUxGlIQRN-49" value="" style="html=1;jettySize=18;whiteSpace=wrap;fontSize=13;strokeWidth=1.5;rounded=1;arcSize=12;edgeStyle=orthogonalEdgeStyle;startArrow=none;endArrow=block;endFill=1;exitX=0.5;exitY=0;exitPerimeter=0;entryX=0.5;entryY=1;entryPerimeter=0;lucidId=WQ6fGbkqWfLp;labelBackgroundColor=none;fontColor=default;" edge="1" parent="1" source="Y19wQWIksPXoUxGlIQRN-45" target="Y19wQWIksPXoUxGlIQRN-48">
          <mxGeometry width="100" height="100" relative="1" as="geometry">
            <Array as="points" />
          </mxGeometry>
        </mxCell>
        <mxCell id="Y19wQWIksPXoUxGlIQRN-50" value="DH_Inicio" style="html=1;overflow=block;blockSpacing=1;whiteSpace=wrap;ellipse;fontSize=16.7;spacing=3.8;strokeOpacity=100;rounded=1;absoluteArcSize=1;arcSize=9;strokeWidth=NaN;lucidId=WQ6fbbf7PhZ1;labelBackgroundColor=none;" vertex="1" parent="1">
          <mxGeometry x="-950" y="930" width="150" height="60" as="geometry" />
        </mxCell>
        <mxCell id="Y19wQWIksPXoUxGlIQRN-51" value="" style="html=1;jettySize=18;whiteSpace=wrap;fontSize=13;strokeWidth=1.5;rounded=1;arcSize=12;edgeStyle=orthogonalEdgeStyle;startArrow=none;endArrow=block;endFill=1;exitX=0.5;exitY=0;exitPerimeter=0;entryX=0.5;entryY=1;entryPerimeter=0;lucidId=WQ6fk4638HUY;labelBackgroundColor=none;fontColor=default;" edge="1" parent="1" source="Y19wQWIksPXoUxGlIQRN-45" target="Y19wQWIksPXoUxGlIQRN-50">
          <mxGeometry width="100" height="100" relative="1" as="geometry">
            <Array as="points" />
          </mxGeometry>
        </mxCell>
        <mxCell id="Y19wQWIksPXoUxGlIQRN-52" value="DH_Fim" style="html=1;overflow=block;blockSpacing=1;whiteSpace=wrap;ellipse;fontSize=16.7;spacing=3.8;strokeOpacity=100;rounded=1;absoluteArcSize=1;arcSize=9;strokeWidth=NaN;lucidId=WQ6fvAiR52QW;labelBackgroundColor=none;" vertex="1" parent="1">
          <mxGeometry x="-770" y="930" width="135" height="60" as="geometry" />
        </mxCell>
        <mxCell id="Y19wQWIksPXoUxGlIQRN-53" value="" style="html=1;jettySize=18;whiteSpace=wrap;fontSize=13;strokeWidth=1.5;rounded=1;arcSize=12;edgeStyle=orthogonalEdgeStyle;startArrow=none;endArrow=block;endFill=1;exitX=0.5;exitY=0;exitPerimeter=0;entryX=0.5;entryY=1;entryPerimeter=0;lucidId=WQ6f5iBZMKv1;labelBackgroundColor=none;fontColor=default;" edge="1" parent="1" source="Y19wQWIksPXoUxGlIQRN-45" target="Y19wQWIksPXoUxGlIQRN-52">
          <mxGeometry width="100" height="100" relative="1" as="geometry">
            <Array as="points" />
          </mxGeometry>
        </mxCell>
        <mxCell id="Y19wQWIksPXoUxGlIQRN-110" style="edgeStyle=orthogonalEdgeStyle;rounded=0;orthogonalLoop=1;jettySize=auto;html=1;exitX=0.5;exitY=1;exitDx=0;exitDy=0;" edge="1" parent="1" source="Y19wQWIksPXoUxGlIQRN-54" target="Y19wQWIksPXoUxGlIQRN-108">
          <mxGeometry relative="1" as="geometry" />
        </mxCell>
        <mxCell id="Y19wQWIksPXoUxGlIQRN-161" style="edgeStyle=orthogonalEdgeStyle;rounded=0;orthogonalLoop=1;jettySize=auto;html=1;exitX=1;exitY=0.5;exitDx=0;exitDy=0;entryX=0;entryY=0.5;entryDx=0;entryDy=0;" edge="1" parent="1" source="Y19wQWIksPXoUxGlIQRN-54" target="Y19wQWIksPXoUxGlIQRN-156">
          <mxGeometry relative="1" as="geometry" />
        </mxCell>
        <mxCell id="Y19wQWIksPXoUxGlIQRN-54" value="ESTUDANTE" style="html=1;overflow=block;blockSpacing=1;whiteSpace=wrap;fontSize=16.7;fontStyle=1;spacing=9;strokeOpacity=100;rounded=1;absoluteArcSize=1;arcSize=9;strokeWidth=NaN;lucidId=3R6fyVYIqaLP;labelBackgroundColor=none;" vertex="1" parent="1">
          <mxGeometry x="407.5" y="-99" width="135" height="56" as="geometry" />
        </mxCell>
        <mxCell id="Y19wQWIksPXoUxGlIQRN-55" value="ID_Estudante" style="html=1;overflow=block;blockSpacing=1;whiteSpace=wrap;ellipse;fontSize=16.7;fontStyle=5;spacing=3.8;strokeOpacity=100;rounded=1;absoluteArcSize=1;arcSize=9;strokeWidth=NaN;lucidId=3R6fCSmPHoHH;labelBackgroundColor=none;" vertex="1" parent="1">
          <mxGeometry x="137.5" y="-279" width="150" height="60" as="geometry" />
        </mxCell>
        <mxCell id="Y19wQWIksPXoUxGlIQRN-56" value="" style="html=1;jettySize=18;whiteSpace=wrap;fontSize=13;strokeWidth=1.5;rounded=1;arcSize=12;edgeStyle=orthogonalEdgeStyle;startArrow=none;endArrow=block;endFill=1;exitX=0.5;exitY=0;exitPerimeter=0;entryX=0.5;entryY=1;entryPerimeter=0;lucidId=3R6f0--CZN_C;labelBackgroundColor=none;fontColor=default;" edge="1" parent="1" source="Y19wQWIksPXoUxGlIQRN-54" target="Y19wQWIksPXoUxGlIQRN-55">
          <mxGeometry width="100" height="100" relative="1" as="geometry">
            <Array as="points" />
          </mxGeometry>
        </mxCell>
        <mxCell id="Y19wQWIksPXoUxGlIQRN-57" value="CD_Matricula" style="html=1;overflow=block;blockSpacing=1;whiteSpace=wrap;ellipse;fontSize=16.7;spacing=3.8;strokeOpacity=100;rounded=1;absoluteArcSize=1;arcSize=9;strokeWidth=NaN;lucidId=3R6f4P3A_lEq;labelBackgroundColor=none;" vertex="1" parent="1">
          <mxGeometry x="302.5" y="-281" width="135" height="60" as="geometry" />
        </mxCell>
        <mxCell id="Y19wQWIksPXoUxGlIQRN-58" value="" style="html=1;jettySize=18;whiteSpace=wrap;fontSize=13;strokeWidth=1.5;rounded=1;arcSize=12;edgeStyle=orthogonalEdgeStyle;startArrow=none;endArrow=block;endFill=1;exitX=0.5;exitY=0;exitPerimeter=0;entryX=0.5;entryY=1;entryPerimeter=0;lucidId=3R6frMJ.aWd6;labelBackgroundColor=none;fontColor=default;" edge="1" parent="1" source="Y19wQWIksPXoUxGlIQRN-54" target="Y19wQWIksPXoUxGlIQRN-57">
          <mxGeometry width="100" height="100" relative="1" as="geometry">
            <Array as="points" />
          </mxGeometry>
        </mxCell>
        <mxCell id="Y19wQWIksPXoUxGlIQRN-59" value="NM_Nome" style="html=1;overflow=block;blockSpacing=1;whiteSpace=wrap;ellipse;fontSize=16.7;spacing=3.8;strokeOpacity=100;rounded=1;absoluteArcSize=1;arcSize=9;strokeWidth=NaN;lucidId=3R6fFDSFC5ej;labelBackgroundColor=none;" vertex="1" parent="1">
          <mxGeometry x="452.5" y="-279" width="135" height="60" as="geometry" />
        </mxCell>
        <mxCell id="Y19wQWIksPXoUxGlIQRN-60" value="" style="html=1;jettySize=18;whiteSpace=wrap;fontSize=13;strokeWidth=1.5;rounded=1;arcSize=12;edgeStyle=orthogonalEdgeStyle;startArrow=none;endArrow=block;endFill=1;exitX=0.5;exitY=0;exitPerimeter=0;entryX=0.5;entryY=1;entryPerimeter=0;lucidId=3R6fZvHzz3dQ;labelBackgroundColor=none;fontColor=default;" edge="1" parent="1" source="Y19wQWIksPXoUxGlIQRN-54" target="Y19wQWIksPXoUxGlIQRN-59">
          <mxGeometry width="100" height="100" relative="1" as="geometry">
            <Array as="points" />
          </mxGeometry>
        </mxCell>
        <mxCell id="Y19wQWIksPXoUxGlIQRN-61" value="ALOCACAO" style="html=1;overflow=block;blockSpacing=1;whiteSpace=wrap;fontSize=16.7;fontStyle=1;spacing=9;strokeOpacity=100;rounded=1;absoluteArcSize=1;arcSize=9;strokeWidth=NaN;lucidId=ST6fM2zTrdxQ;labelBackgroundColor=none;" vertex="1" parent="1">
          <mxGeometry x="-502.5" y="701" width="135" height="69" as="geometry" />
        </mxCell>
        <mxCell id="Y19wQWIksPXoUxGlIQRN-62" value="FK_Turma" style="html=1;overflow=block;blockSpacing=1;whiteSpace=wrap;ellipse;fontSize=16.7;spacing=3.8;strokeOpacity=100;rounded=1;absoluteArcSize=1;arcSize=9;strokeWidth=NaN;lucidId=ST6f1gxqOVVi;labelBackgroundColor=none;" vertex="1" parent="1">
          <mxGeometry x="-652.5" y="520" width="135" height="60" as="geometry" />
        </mxCell>
        <mxCell id="Y19wQWIksPXoUxGlIQRN-63" value="" style="html=1;jettySize=18;whiteSpace=wrap;fontSize=13;strokeWidth=1.5;rounded=1;arcSize=12;edgeStyle=orthogonalEdgeStyle;startArrow=none;endArrow=block;endFill=1;exitX=0.5;exitY=0;exitPerimeter=0;entryX=0.5;entryY=1;entryPerimeter=0;lucidId=ST6fXGDpcyle;labelBackgroundColor=none;fontColor=default;" edge="1" parent="1" source="Y19wQWIksPXoUxGlIQRN-61" target="Y19wQWIksPXoUxGlIQRN-62">
          <mxGeometry width="100" height="100" relative="1" as="geometry">
            <Array as="points" />
          </mxGeometry>
        </mxCell>
        <mxCell id="Y19wQWIksPXoUxGlIQRN-64" value="FK_Sala" style="html=1;overflow=block;blockSpacing=1;whiteSpace=wrap;ellipse;fontSize=16.7;spacing=3.8;strokeOpacity=100;rounded=1;absoluteArcSize=1;arcSize=9;strokeWidth=NaN;lucidId=ST6fa044gmdd;labelBackgroundColor=none;" vertex="1" parent="1">
          <mxGeometry x="-502.5" y="521" width="135" height="60" as="geometry" />
        </mxCell>
        <mxCell id="Y19wQWIksPXoUxGlIQRN-65" value="" style="html=1;jettySize=18;whiteSpace=wrap;fontSize=13;strokeWidth=1.5;rounded=1;arcSize=12;edgeStyle=orthogonalEdgeStyle;startArrow=none;endArrow=block;endFill=1;exitX=0.5;exitY=0;exitPerimeter=0;entryX=0.5;entryY=1;entryPerimeter=0;lucidId=ST6fmIOSftkJ;labelBackgroundColor=none;fontColor=default;" edge="1" parent="1" source="Y19wQWIksPXoUxGlIQRN-61" target="Y19wQWIksPXoUxGlIQRN-64">
          <mxGeometry width="100" height="100" relative="1" as="geometry">
            <Array as="points" />
          </mxGeometry>
        </mxCell>
        <mxCell id="Y19wQWIksPXoUxGlIQRN-66" value="FK_Horario" style="html=1;overflow=block;blockSpacing=1;whiteSpace=wrap;ellipse;fontSize=16.7;spacing=3.8;strokeOpacity=100;rounded=1;absoluteArcSize=1;arcSize=9;strokeWidth=NaN;lucidId=-U6fcGYteFbJ;labelBackgroundColor=none;" vertex="1" parent="1">
          <mxGeometry x="-352.5" y="520" width="135" height="60" as="geometry" />
        </mxCell>
        <mxCell id="Y19wQWIksPXoUxGlIQRN-67" value="" style="html=1;jettySize=18;whiteSpace=wrap;fontSize=13;strokeWidth=1.5;rounded=1;arcSize=12;edgeStyle=orthogonalEdgeStyle;startArrow=none;endArrow=block;endFill=1;exitX=0.5;exitY=0;exitPerimeter=0;entryX=0.5;entryY=1;entryPerimeter=0;lucidId=dV6fzzl.o4vk;labelBackgroundColor=none;fontColor=default;" edge="1" parent="1" source="Y19wQWIksPXoUxGlIQRN-61" target="Y19wQWIksPXoUxGlIQRN-66">
          <mxGeometry width="100" height="100" relative="1" as="geometry">
            <Array as="points" />
          </mxGeometry>
        </mxCell>
        <mxCell id="Y19wQWIksPXoUxGlIQRN-83" value="" style="rhombus;whiteSpace=wrap;html=1;" vertex="1" parent="1">
          <mxGeometry x="300" y="1098" width="190" height="80" as="geometry" />
        </mxCell>
        <mxCell id="Y19wQWIksPXoUxGlIQRN-84" value="SALA_EQUIPAMENTOS" style="text;html=1;align=center;verticalAlign=middle;whiteSpace=wrap;rounded=0;" vertex="1" parent="1">
          <mxGeometry x="366" y="1122" width="60" height="30" as="geometry" />
        </mxCell>
        <mxCell id="Y19wQWIksPXoUxGlIQRN-85" value="" style="endArrow=classic;html=1;rounded=0;exitX=1;exitY=0.5;exitDx=0;exitDy=0;entryX=0;entryY=0.5;entryDx=0;entryDy=0;" edge="1" parent="1" target="Y19wQWIksPXoUxGlIQRN-83">
          <mxGeometry width="50" height="50" relative="1" as="geometry">
            <mxPoint x="100" y="1137.29" as="sourcePoint" />
            <mxPoint x="285" y="1137.29" as="targetPoint" />
          </mxGeometry>
        </mxCell>
        <mxCell id="Y19wQWIksPXoUxGlIQRN-86" value="" style="endArrow=classic;html=1;rounded=0;exitX=1;exitY=0.5;exitDx=0;exitDy=0;entryX=0;entryY=0.5;entryDx=0;entryDy=0;" edge="1" parent="1" target="Y19wQWIksPXoUxGlIQRN-33">
          <mxGeometry width="50" height="50" relative="1" as="geometry">
            <mxPoint x="490" y="1137.29" as="sourcePoint" />
            <mxPoint x="715" y="1138.12" as="targetPoint" />
          </mxGeometry>
        </mxCell>
        <mxCell id="Y19wQWIksPXoUxGlIQRN-87" value="N" style="text;html=1;align=center;verticalAlign=middle;whiteSpace=wrap;rounded=0;" vertex="1" parent="1">
          <mxGeometry x="250" y="1098" width="60" height="30" as="geometry" />
        </mxCell>
        <mxCell id="Y19wQWIksPXoUxGlIQRN-88" value="M" style="text;html=1;align=center;verticalAlign=middle;whiteSpace=wrap;rounded=0;" vertex="1" parent="1">
          <mxGeometry x="490" y="1098" width="60" height="30" as="geometry" />
        </mxCell>
        <mxCell id="Y19wQWIksPXoUxGlIQRN-91" value="" style="rhombus;whiteSpace=wrap;html=1;" vertex="1" parent="1">
          <mxGeometry x="-800" y="181" width="180" height="80" as="geometry" />
        </mxCell>
        <mxCell id="Y19wQWIksPXoUxGlIQRN-92" value="&lt;font style=&quot;font-size: 18px;&quot;&gt;Ministra&lt;/font&gt;" style="text;html=1;align=center;verticalAlign=middle;whiteSpace=wrap;rounded=0;" vertex="1" parent="1">
          <mxGeometry x="-740" y="206" width="60" height="30" as="geometry" />
        </mxCell>
        <mxCell id="Y19wQWIksPXoUxGlIQRN-93" value="" style="endArrow=classic;html=1;rounded=0;exitX=0.5;exitY=1;exitDx=0;exitDy=0;entryX=0.5;entryY=0;entryDx=0;entryDy=0;" edge="1" parent="1" source="Y19wQWIksPXoUxGlIQRN-24" target="Y19wQWIksPXoUxGlIQRN-91">
          <mxGeometry width="50" height="50" relative="1" as="geometry">
            <mxPoint x="-200" y="260" as="sourcePoint" />
            <mxPoint x="-150" y="210" as="targetPoint" />
          </mxGeometry>
        </mxCell>
        <mxCell id="Y19wQWIksPXoUxGlIQRN-94" value="" style="endArrow=classic;html=1;rounded=0;exitX=0.5;exitY=1;exitDx=0;exitDy=0;entryX=0;entryY=0.75;entryDx=0;entryDy=0;" edge="1" parent="1" target="Y19wQWIksPXoUxGlIQRN-38">
          <mxGeometry width="50" height="50" relative="1" as="geometry">
            <mxPoint x="-711.11" y="250" as="sourcePoint" />
            <mxPoint x="-711.11" y="476" as="targetPoint" />
            <Array as="points">
              <mxPoint x="-711" y="400" />
            </Array>
          </mxGeometry>
        </mxCell>
        <mxCell id="Y19wQWIksPXoUxGlIQRN-102" style="edgeStyle=orthogonalEdgeStyle;rounded=0;orthogonalLoop=1;jettySize=auto;html=1;exitX=0.5;exitY=1;exitDx=0;exitDy=0;entryX=1;entryY=0.5;entryDx=0;entryDy=0;" edge="1" parent="1" source="Y19wQWIksPXoUxGlIQRN-97" target="Y19wQWIksPXoUxGlIQRN-38">
          <mxGeometry relative="1" as="geometry" />
        </mxCell>
        <mxCell id="Y19wQWIksPXoUxGlIQRN-97" value="" style="rhombus;whiteSpace=wrap;html=1;" vertex="1" parent="1">
          <mxGeometry x="65" y="180" width="180" height="80" as="geometry" />
        </mxCell>
        <mxCell id="Y19wQWIksPXoUxGlIQRN-98" value="&lt;font style=&quot;font-size: 18px;&quot;&gt;Compoe&lt;/font&gt;" style="text;html=1;align=center;verticalAlign=middle;whiteSpace=wrap;rounded=0;" vertex="1" parent="1">
          <mxGeometry x="125" y="210" width="60" height="25" as="geometry" />
        </mxCell>
        <mxCell id="Y19wQWIksPXoUxGlIQRN-104" value="1" style="text;html=1;align=center;verticalAlign=middle;whiteSpace=wrap;rounded=0;" vertex="1" parent="1">
          <mxGeometry x="-710" y="150" width="60" height="30" as="geometry" />
        </mxCell>
        <mxCell id="Y19wQWIksPXoUxGlIQRN-105" value="M" style="text;html=1;align=center;verticalAlign=middle;whiteSpace=wrap;rounded=0;" vertex="1" parent="1">
          <mxGeometry x="-710" y="261" width="60" height="30" as="geometry" />
        </mxCell>
        <mxCell id="Y19wQWIksPXoUxGlIQRN-106" value="1" style="text;html=1;align=center;verticalAlign=middle;whiteSpace=wrap;rounded=0;" vertex="1" parent="1">
          <mxGeometry x="90" y="150" width="60" height="30" as="geometry" />
        </mxCell>
        <mxCell id="Y19wQWIksPXoUxGlIQRN-107" value="M" style="text;html=1;align=center;verticalAlign=middle;whiteSpace=wrap;rounded=0;" vertex="1" parent="1">
          <mxGeometry x="90" y="260" width="60" height="30" as="geometry" />
        </mxCell>
        <mxCell id="Y19wQWIksPXoUxGlIQRN-111" style="edgeStyle=orthogonalEdgeStyle;rounded=0;orthogonalLoop=1;jettySize=auto;html=1;exitX=0.5;exitY=1;exitDx=0;exitDy=0;entryX=1;entryY=0.75;entryDx=0;entryDy=0;" edge="1" parent="1" source="Y19wQWIksPXoUxGlIQRN-108" target="Y19wQWIksPXoUxGlIQRN-38">
          <mxGeometry relative="1" as="geometry" />
        </mxCell>
        <mxCell id="Y19wQWIksPXoUxGlIQRN-108" value="" style="rhombus;whiteSpace=wrap;html=1;" vertex="1" parent="1">
          <mxGeometry x="385" y="180" width="180" height="80" as="geometry" />
        </mxCell>
        <mxCell id="Y19wQWIksPXoUxGlIQRN-109" value="&lt;font style=&quot;font-size: 20px;&quot;&gt;Matricula&lt;/font&gt;" style="text;html=1;align=center;verticalAlign=middle;whiteSpace=wrap;rounded=0;" vertex="1" parent="1">
          <mxGeometry x="445" y="206" width="60" height="25" as="geometry" />
        </mxCell>
        <mxCell id="Y19wQWIksPXoUxGlIQRN-113" value="M" style="text;html=1;align=center;verticalAlign=middle;whiteSpace=wrap;rounded=0;" vertex="1" parent="1">
          <mxGeometry x="385" y="260" width="60" height="30" as="geometry" />
        </mxCell>
        <mxCell id="Y19wQWIksPXoUxGlIQRN-115" value="N" style="text;html=1;align=center;verticalAlign=middle;whiteSpace=wrap;rounded=0;" vertex="1" parent="1">
          <mxGeometry x="385" y="150" width="60" height="30" as="geometry" />
        </mxCell>
        <mxCell id="Y19wQWIksPXoUxGlIQRN-124" style="edgeStyle=orthogonalEdgeStyle;rounded=0;orthogonalLoop=1;jettySize=auto;html=1;exitX=1;exitY=0.5;exitDx=0;exitDy=0;entryX=0.5;entryY=1;entryDx=0;entryDy=0;" edge="1" parent="1" source="Y19wQWIksPXoUxGlIQRN-116" target="Y19wQWIksPXoUxGlIQRN-38">
          <mxGeometry relative="1" as="geometry" />
        </mxCell>
        <mxCell id="Y19wQWIksPXoUxGlIQRN-125" style="edgeStyle=orthogonalEdgeStyle;rounded=0;orthogonalLoop=1;jettySize=auto;html=1;exitX=0.5;exitY=1;exitDx=0;exitDy=0;entryX=1;entryY=0.5;entryDx=0;entryDy=0;" edge="1" parent="1" source="Y19wQWIksPXoUxGlIQRN-116" target="Y19wQWIksPXoUxGlIQRN-45">
          <mxGeometry relative="1" as="geometry" />
        </mxCell>
        <mxCell id="Y19wQWIksPXoUxGlIQRN-126" style="edgeStyle=orthogonalEdgeStyle;rounded=0;orthogonalLoop=1;jettySize=auto;html=1;exitX=0.5;exitY=1;exitDx=0;exitDy=0;entryX=0;entryY=0.5;entryDx=0;entryDy=0;" edge="1" parent="1" source="Y19wQWIksPXoUxGlIQRN-116" target="Y19wQWIksPXoUxGlIQRN-12">
          <mxGeometry relative="1" as="geometry" />
        </mxCell>
        <mxCell id="Y19wQWIksPXoUxGlIQRN-116" value="" style="rhombus;whiteSpace=wrap;html=1;fillColor=none;" vertex="1" parent="1">
          <mxGeometry x="-505" y="701" width="140" height="70" as="geometry" />
        </mxCell>
        <mxCell id="Y19wQWIksPXoUxGlIQRN-120" value="" style="edgeStyle=orthogonalEdgeStyle;rounded=0;orthogonalLoop=1;jettySize=auto;html=1;" edge="1" parent="1" source="Y19wQWIksPXoUxGlIQRN-118" target="Y19wQWIksPXoUxGlIQRN-119">
          <mxGeometry relative="1" as="geometry">
            <Array as="points">
              <mxPoint x="680" y="220" />
              <mxPoint x="680" y="100" />
            </Array>
          </mxGeometry>
        </mxCell>
        <mxCell id="Y19wQWIksPXoUxGlIQRN-123" value="" style="edgeStyle=orthogonalEdgeStyle;rounded=0;orthogonalLoop=1;jettySize=auto;html=1;" edge="1" parent="1" source="Y19wQWIksPXoUxGlIQRN-118" target="Y19wQWIksPXoUxGlIQRN-122">
          <mxGeometry relative="1" as="geometry" />
        </mxCell>
        <mxCell id="Y19wQWIksPXoUxGlIQRN-118" value="" style="rounded=0;whiteSpace=wrap;html=1;fillColor=none;" vertex="1" parent="1">
          <mxGeometry x="385" y="180" width="175" height="80" as="geometry" />
        </mxCell>
        <mxCell id="Y19wQWIksPXoUxGlIQRN-119" value="FK_Estudante" style="ellipse;whiteSpace=wrap;html=1;fillColor=none;rounded=0;" vertex="1" parent="1">
          <mxGeometry x="730" y="60" width="140" height="80" as="geometry" />
        </mxCell>
        <mxCell id="Y19wQWIksPXoUxGlIQRN-122" value="FK_Turma" style="ellipse;whiteSpace=wrap;html=1;fillColor=none;rounded=0;" vertex="1" parent="1">
          <mxGeometry x="725" y="180" width="140" height="80" as="geometry" />
        </mxCell>
        <mxCell id="Y19wQWIksPXoUxGlIQRN-127" value="N" style="text;html=1;align=center;verticalAlign=middle;whiteSpace=wrap;rounded=0;" vertex="1" parent="1">
          <mxGeometry x="-450" y="780" width="60" height="30" as="geometry" />
        </mxCell>
        <mxCell id="Y19wQWIksPXoUxGlIQRN-128" value="N" style="text;html=1;align=center;verticalAlign=middle;whiteSpace=wrap;rounded=0;" vertex="1" parent="1">
          <mxGeometry x="-850" y="1110" width="60" height="30" as="geometry" />
        </mxCell>
        <mxCell id="Y19wQWIksPXoUxGlIQRN-129" value="N" style="text;html=1;align=center;verticalAlign=middle;whiteSpace=wrap;rounded=0;" vertex="1" parent="1">
          <mxGeometry x="-95" y="1110" width="60" height="30" as="geometry" />
        </mxCell>
        <mxCell id="Y19wQWIksPXoUxGlIQRN-130" value="" style="rounded=0;whiteSpace=wrap;html=1;fillColor=none;" vertex="1" parent="1">
          <mxGeometry x="299" y="1100" width="191" height="80" as="geometry" />
        </mxCell>
        <mxCell id="Y19wQWIksPXoUxGlIQRN-131" value="N" style="text;html=1;align=center;verticalAlign=middle;whiteSpace=wrap;rounded=0;" vertex="1" parent="1">
          <mxGeometry x="-367.5" y="710" width="60" height="30" as="geometry" />
        </mxCell>
        <mxCell id="Y19wQWIksPXoUxGlIQRN-148" style="edgeStyle=orthogonalEdgeStyle;rounded=0;orthogonalLoop=1;jettySize=auto;html=1;exitX=1;exitY=0.5;exitDx=0;exitDy=0;entryX=0;entryY=0.5;entryDx=0;entryDy=0;" edge="1" parent="1" source="Y19wQWIksPXoUxGlIQRN-137" target="Y19wQWIksPXoUxGlIQRN-146">
          <mxGeometry relative="1" as="geometry" />
        </mxCell>
        <mxCell id="Y19wQWIksPXoUxGlIQRN-149" style="edgeStyle=orthogonalEdgeStyle;rounded=0;orthogonalLoop=1;jettySize=auto;html=1;exitX=1;exitY=0.5;exitDx=0;exitDy=0;entryX=0;entryY=0.5;entryDx=0;entryDy=0;" edge="1" parent="1" source="Y19wQWIksPXoUxGlIQRN-137" target="Y19wQWIksPXoUxGlIQRN-147">
          <mxGeometry relative="1" as="geometry" />
        </mxCell>
        <mxCell id="Y19wQWIksPXoUxGlIQRN-137" value="AVALIACAO" style="html=1;overflow=block;blockSpacing=1;whiteSpace=wrap;fontSize=16.7;fontStyle=1;spacing=9;strokeOpacity=100;rounded=1;absoluteArcSize=1;arcSize=9;strokeWidth=NaN;lucidId=3R6fyVYIqaLP;labelBackgroundColor=none;" vertex="1" parent="1">
          <mxGeometry x="1500" y="-97" width="135" height="56" as="geometry" />
        </mxCell>
        <mxCell id="Y19wQWIksPXoUxGlIQRN-138" value="ID_Avaliacao" style="html=1;overflow=block;blockSpacing=1;whiteSpace=wrap;ellipse;fontSize=16.7;fontStyle=5;spacing=3.8;strokeOpacity=100;rounded=1;absoluteArcSize=1;arcSize=9;strokeWidth=NaN;lucidId=3R6fCSmPHoHH;labelBackgroundColor=none;" vertex="1" parent="1">
          <mxGeometry x="1230" y="-277" width="150" height="60" as="geometry" />
        </mxCell>
        <mxCell id="Y19wQWIksPXoUxGlIQRN-139" value="" style="html=1;jettySize=18;whiteSpace=wrap;fontSize=13;strokeWidth=1.5;rounded=1;arcSize=12;edgeStyle=orthogonalEdgeStyle;startArrow=none;endArrow=block;endFill=1;exitX=0.5;exitY=0;exitPerimeter=0;entryX=0.5;entryY=1;entryPerimeter=0;lucidId=3R6f0--CZN_C;labelBackgroundColor=none;fontColor=default;" edge="1" parent="1" source="Y19wQWIksPXoUxGlIQRN-137" target="Y19wQWIksPXoUxGlIQRN-138">
          <mxGeometry width="100" height="100" relative="1" as="geometry">
            <Array as="points" />
          </mxGeometry>
        </mxCell>
        <mxCell id="Y19wQWIksPXoUxGlIQRN-140" value="FK_Turma" style="html=1;overflow=block;blockSpacing=1;whiteSpace=wrap;ellipse;fontSize=16.7;spacing=3.8;strokeOpacity=100;rounded=1;absoluteArcSize=1;arcSize=9;strokeWidth=NaN;lucidId=3R6f4P3A_lEq;labelBackgroundColor=none;" vertex="1" parent="1">
          <mxGeometry x="1395" y="-279" width="135" height="60" as="geometry" />
        </mxCell>
        <mxCell id="Y19wQWIksPXoUxGlIQRN-141" value="" style="html=1;jettySize=18;whiteSpace=wrap;fontSize=13;strokeWidth=1.5;rounded=1;arcSize=12;edgeStyle=orthogonalEdgeStyle;startArrow=none;endArrow=block;endFill=1;exitX=0.5;exitY=0;exitPerimeter=0;entryX=0.5;entryY=1;entryPerimeter=0;lucidId=3R6frMJ.aWd6;labelBackgroundColor=none;fontColor=default;" edge="1" parent="1" source="Y19wQWIksPXoUxGlIQRN-137" target="Y19wQWIksPXoUxGlIQRN-140">
          <mxGeometry width="100" height="100" relative="1" as="geometry">
            <Array as="points" />
          </mxGeometry>
        </mxCell>
        <mxCell id="Y19wQWIksPXoUxGlIQRN-142" value="NM_Nome" style="html=1;overflow=block;blockSpacing=1;whiteSpace=wrap;ellipse;fontSize=16.7;spacing=3.8;strokeOpacity=100;rounded=1;absoluteArcSize=1;arcSize=9;strokeWidth=NaN;lucidId=3R6fFDSFC5ej;labelBackgroundColor=none;" vertex="1" parent="1">
          <mxGeometry x="1545" y="-277" width="135" height="60" as="geometry" />
        </mxCell>
        <mxCell id="Y19wQWIksPXoUxGlIQRN-143" value="" style="html=1;jettySize=18;whiteSpace=wrap;fontSize=13;strokeWidth=1.5;rounded=1;arcSize=12;edgeStyle=orthogonalEdgeStyle;startArrow=none;endArrow=block;endFill=1;exitX=0.5;exitY=0;exitPerimeter=0;entryX=0.5;entryY=1;entryPerimeter=0;lucidId=3R6fZvHzz3dQ;labelBackgroundColor=none;fontColor=default;" edge="1" parent="1" source="Y19wQWIksPXoUxGlIQRN-137" target="Y19wQWIksPXoUxGlIQRN-142">
          <mxGeometry width="100" height="100" relative="1" as="geometry">
            <Array as="points" />
          </mxGeometry>
        </mxCell>
        <mxCell id="Y19wQWIksPXoUxGlIQRN-144" value="DT_Data" style="html=1;overflow=block;blockSpacing=1;whiteSpace=wrap;ellipse;fontSize=16.7;spacing=3.8;strokeOpacity=100;rounded=1;absoluteArcSize=1;arcSize=9;strokeWidth=NaN;lucidId=3R6fFDSFC5ej;labelBackgroundColor=none;" vertex="1" parent="1">
          <mxGeometry x="1700" y="-279" width="135" height="60" as="geometry" />
        </mxCell>
        <mxCell id="Y19wQWIksPXoUxGlIQRN-145" value="" style="edgeStyle=orthogonalEdgeStyle;rounded=0;orthogonalLoop=1;jettySize=auto;html=1;exitX=0.5;exitY=0;exitDx=0;exitDy=0;entryX=0.5;entryY=1;entryDx=0;entryDy=0;" edge="1" parent="1" source="Y19wQWIksPXoUxGlIQRN-137" target="Y19wQWIksPXoUxGlIQRN-144">
          <mxGeometry relative="1" as="geometry">
            <mxPoint x="1670" y="-136" as="sourcePoint" />
            <mxPoint x="1820" y="-256" as="targetPoint" />
            <Array as="points">
              <mxPoint x="1568" y="-156" />
              <mxPoint x="1768" y="-156" />
              <mxPoint x="1768" y="-196" />
              <mxPoint x="1768" y="-196" />
            </Array>
          </mxGeometry>
        </mxCell>
        <mxCell id="Y19wQWIksPXoUxGlIQRN-146" value="TP_Tipo" style="html=1;overflow=block;blockSpacing=1;whiteSpace=wrap;ellipse;fontSize=16.7;spacing=3.8;strokeOpacity=100;rounded=1;absoluteArcSize=1;arcSize=9;strokeWidth=NaN;lucidId=3R6fFDSFC5ej;labelBackgroundColor=none;" vertex="1" parent="1">
          <mxGeometry x="1780" y="-99" width="135" height="60" as="geometry" />
        </mxCell>
        <mxCell id="Y19wQWIksPXoUxGlIQRN-147" value="NU_Peso" style="html=1;overflow=block;blockSpacing=1;whiteSpace=wrap;ellipse;fontSize=16.7;spacing=3.8;strokeOpacity=100;rounded=1;absoluteArcSize=1;arcSize=9;strokeWidth=NaN;lucidId=3R6fFDSFC5ej;labelBackgroundColor=none;" vertex="1" parent="1">
          <mxGeometry x="1778" y="-16" width="135" height="60" as="geometry" />
        </mxCell>
        <mxCell id="Y19wQWIksPXoUxGlIQRN-150" value="" style="rhombus;whiteSpace=wrap;html=1;" vertex="1" parent="1">
          <mxGeometry x="870" y="-108.5" width="180" height="80" as="geometry" />
        </mxCell>
        <mxCell id="Y19wQWIksPXoUxGlIQRN-151" value="Realiza" style="text;html=1;align=center;verticalAlign=middle;whiteSpace=wrap;rounded=0;strokeWidth=1;fontSize=18;" vertex="1" parent="1">
          <mxGeometry x="930" y="-81" width="60" height="25" as="geometry" />
        </mxCell>
        <mxCell id="Y19wQWIksPXoUxGlIQRN-162" style="edgeStyle=orthogonalEdgeStyle;rounded=0;orthogonalLoop=1;jettySize=auto;html=1;exitX=1;exitY=0.5;exitDx=0;exitDy=0;entryX=0;entryY=0.5;entryDx=0;entryDy=0;" edge="1" parent="1" source="Y19wQWIksPXoUxGlIQRN-156" target="Y19wQWIksPXoUxGlIQRN-137">
          <mxGeometry relative="1" as="geometry" />
        </mxCell>
        <mxCell id="Y19wQWIksPXoUxGlIQRN-166" value="" style="edgeStyle=orthogonalEdgeStyle;rounded=0;orthogonalLoop=1;jettySize=auto;html=1;exitX=0.5;exitY=0;exitDx=0;exitDy=0;" edge="1" parent="1" source="Y19wQWIksPXoUxGlIQRN-156" target="Y19wQWIksPXoUxGlIQRN-165">
          <mxGeometry relative="1" as="geometry" />
        </mxCell>
        <mxCell id="Y19wQWIksPXoUxGlIQRN-168" value="" style="edgeStyle=orthogonalEdgeStyle;rounded=0;orthogonalLoop=1;jettySize=auto;html=1;" edge="1" parent="1" source="Y19wQWIksPXoUxGlIQRN-156" target="Y19wQWIksPXoUxGlIQRN-167">
          <mxGeometry relative="1" as="geometry" />
        </mxCell>
        <mxCell id="Y19wQWIksPXoUxGlIQRN-170" value="" style="edgeStyle=orthogonalEdgeStyle;rounded=0;orthogonalLoop=1;jettySize=auto;html=1;" edge="1" parent="1" source="Y19wQWIksPXoUxGlIQRN-156" target="Y19wQWIksPXoUxGlIQRN-167">
          <mxGeometry relative="1" as="geometry" />
        </mxCell>
        <mxCell id="Y19wQWIksPXoUxGlIQRN-171" value="" style="edgeStyle=orthogonalEdgeStyle;rounded=0;orthogonalLoop=1;jettySize=auto;html=1;" edge="1" parent="1" source="Y19wQWIksPXoUxGlIQRN-156" target="Y19wQWIksPXoUxGlIQRN-167">
          <mxGeometry relative="1" as="geometry">
            <Array as="points">
              <mxPoint x="960" y="-160" />
              <mxPoint x="890" y="-160" />
            </Array>
          </mxGeometry>
        </mxCell>
        <mxCell id="Y19wQWIksPXoUxGlIQRN-156" value="" style="rounded=0;whiteSpace=wrap;html=1;fillColor=none;" vertex="1" parent="1">
          <mxGeometry x="872.5" y="-110" width="175" height="80" as="geometry" />
        </mxCell>
        <mxCell id="Y19wQWIksPXoUxGlIQRN-163" value="N" style="text;html=1;align=center;verticalAlign=middle;whiteSpace=wrap;rounded=0;" vertex="1" parent="1">
          <mxGeometry x="805" y="-108.5" width="60" height="30" as="geometry" />
        </mxCell>
        <mxCell id="Y19wQWIksPXoUxGlIQRN-164" value="M" style="text;html=1;align=center;verticalAlign=middle;whiteSpace=wrap;rounded=0;" vertex="1" parent="1">
          <mxGeometry x="1060" y="-110" width="60" height="30" as="geometry" />
        </mxCell>
        <mxCell id="Y19wQWIksPXoUxGlIQRN-165" value="&lt;font style=&quot;font-size: 18px;&quot;&gt;FK_Avaliacao&lt;/font&gt;" style="ellipse;whiteSpace=wrap;html=1;fillColor=none;rounded=0;" vertex="1" parent="1">
          <mxGeometry x="655" y="-271.75" width="135" height="59" as="geometry" />
        </mxCell>
        <mxCell id="Y19wQWIksPXoUxGlIQRN-167" value="&lt;font style=&quot;font-size: 18px;&quot;&gt;FK_Estudante&lt;/font&gt;" style="ellipse;whiteSpace=wrap;html=1;fillColor=none;rounded=0;" vertex="1" parent="1">
          <mxGeometry x="815" y="-271.75" width="150" height="69.5" as="geometry" />
        </mxCell>
        <mxCell id="Y19wQWIksPXoUxGlIQRN-173" value="" style="edgeStyle=orthogonalEdgeStyle;rounded=0;orthogonalLoop=1;jettySize=auto;html=1;entryX=0.5;entryY=0;entryDx=0;entryDy=0;" edge="1" parent="1" source="Y19wQWIksPXoUxGlIQRN-172" target="Y19wQWIksPXoUxGlIQRN-156">
          <mxGeometry relative="1" as="geometry">
            <Array as="points">
              <mxPoint x="1065" y="-160" />
              <mxPoint x="960" y="-160" />
            </Array>
          </mxGeometry>
        </mxCell>
        <mxCell id="Y19wQWIksPXoUxGlIQRN-172" value="&lt;font style=&quot;font-size: 18px;&quot;&gt;NU_Nota&lt;/font&gt;" style="ellipse;whiteSpace=wrap;html=1;fillColor=none;rounded=0;" vertex="1" parent="1">
          <mxGeometry x="990" y="-271.75" width="150" height="69.5" as="geometry" />
        </mxCell>
      </root>
    </mxGraphModel>
  </diagram>
</mxfile>
